/* XPM */
static char *result[] = {
/* columns rows colors chars-per-pixel */
"64 64 75 1 ",
"  c #6E455F",
". c #70475F",
"X c #71485F",
"o c #794F5F",
"O c #7D525F",
"+ c #754C60",
"@ c #794F60",
"# c #7C5361",
"$ c #82565E",
"% c #855A5E",
"& c #8B5E5D",
"* c #8F615D",
"= c #9F6E57",
"- c #91635D",
"; c #96695D",
": c #9A6B5B",
"> c #A06F59",
", c #A47357",
"< c #A97757",
"1 c #AA7957",
"2 c #A3735A",
"3 c #A87759",
"4 c #AB7A59",
"5 c #805762",
"6 c #835A63",
"7 c #895F62",
"8 c #8C6363",
"9 c #916763",
"0 c #926964",
"q c #9A6E63",
"w c #956D6B",
"e c #9E7264",
"r c #97706D",
"t c #A27765",
"y c #A57A65",
"u c #A97D64",
"i c #A77D6C",
"p c #A87E68",
"a c #AE8265",
"s c #AC836C",
"d c #B28260",
"f c #B48867",
"g c #B1876C",
"h c #B48969",
"j c #B98F6A",
"k c #BD926B",
"l c #AD8574",
"z c #B18A76",
"x c #B48E79",
"c c #BD9575",
"v c #B6917C",
"b c #BB957B",
"n c #BF997A",
"m c #C59B6C",
"M c #C69D71",
"N c #C89F70",
"B c #C09978",
"V c #CAA171",
"C c #CCA57A",
"Z c #D1AA79",
"A c #C19E85",
"S c #C3A186",
"D c #CBA681",
"F c #CAA886",
"G c #CCAC8E",
"H c #D4AF81",
"J c #D5B082",
"K c #D9B485",
"L c #DCB887",
"P c #D2B18D",
"I c #D3B492",
"U c #DEC19C",
"Y c #E2C79F",
"T c #E3C89F",
"R c None",
/* pixels */
"mmmmNmky0#+XRRRRRRRRRRRRRRRRRRRRRRRRRRRRRRRRRRRRRRRRX+#0ykmNmmmm",
"mmmmmmjyw#+XRRRRRRRRRRRRRRRRRRRRRRRRRRRRRRRRRRRRRRRR +50pjmmmmmm",
"mmmmmmjy06+XRRRRRRRRRRRRRRRRRRRRRRRRRRRRRRRRRRRRRRRR++#0yjmNNkmm",
"mmmmmmjy0#+XRRRRRRRRRRRRRRRRRRRRRRRRRRRRRRRRRRRRRRRR++50yjmmmmmm",
"mmmmmmjp05+XRRRRR+++ ++++ ...+...+..+.+ XXXXXX+RRRRRX+50ujmmmmmm",
"mmmmNmjp05+.RRRR++++++++++@@+++@+++@+++@++++++++RRRRX+#9yjmNNmmm",
"mmmmmmjy0#+.RRRR55555555555###6####66###55556###RRRRX+50yjmmmmmm",
"mkmmmmky05+  RR889999900000000w00w00000w0000w0988RR  +50sjmmmmmk",
"kmmmNkhy0#+  +#8qtippppppppppppuspppaysysyyssyyr8#X X+#0yfkNmmmm",
"mmmmNmjs05+  +58tfjmjjjjjjjfjjjfjjjjjjjjjjjjkjay0#+XX+#0sjmNmmmm",
"NNmVVNks05#+OO7wujmmjmjjmjjmmjmjkkkkjkjkkkkkkkjyr8##++#rskVVVmmN",
"ZZZZZZnsw5##58wtuuuffffffuffffffffffffffffffhhaye086###wscCZZZZZ",
"ZJJKJJCzr#O60esyuutttttuutytytyyyyuyyyuyuyyyyyuysse08##rlCHKZJJZ",
"KKKKLKFzr8#8yahayq:9;q;:q;::q:;;;;;;;;;;;;;;;;e2afge8#8rxDKLLLLL",
"JJKKKJDzr##9egjat:-*--*********-**************;tahhe0##wxAHKKHJJ",
"CCCCCCclr#O8eaau>-*&&&**********************&&;eaaae8##wscCCCCCC",
"kkkkkkfy8#O692t>q-&&*&*****--7****************-;qte-#O#9sgjkkkkk",
"ddddfdu:8OO5&90;;------*----***-*--*--*-*-*-**-;;;-*###903dddddd",
"3311112;%O@O$&-------------**-**--*-*-*------*----*OOoo*;,3d1111",
"333113,-%OoO$&&-**--:;:;--*-**---*-*-*--;:;;;-*--**OooO*;,311133",
"1334112;%OOO5&*----;:>::;--**--**9*-**-;:>>:;--*-**OOooO;>311141",
"444444>;%OoO%&-*---:>222:--***---****-;:>2>2;;*---*OOoo*;23d1444",
"323332>;%O@O%&*-*--::33>:-***--**--**-;;2222:--*-***O#O*;=223222",
"2>>>2>:*%O@O%&-*-*;:2332>--**-*--*-***-:2322:;--*-*OOooO*:>22>22",
";;::::-&$OoO%&--**-:223::;*******--**-;:2232;;-****%O+OO*-::::::",
"-;;--;-&OOoO%&-*9*-:2332:9-***---*-***-:2222:;*****$O#oO%*--;-;-",
"---;---%O@@O%&*---;::332:;-&**&-**-***;:222>:;*****$O##O**-;;-*;",
":;::::-&$o#O%&-*---:2322:---*-----***--:2422:***;**%OOOO**;:;:;:",
"2222:2:-%O#O%&*---->><3::--&-----&-**--:>232:;*-***%OoO%*;>2,>>2",
"2224422-%O+O%&-*---:>33>:---&-&----**--:2322:;-****%O#O%;2243,32",
"4444442;%O+O%&-----:>332:;-&-&----&----:>23>:******OO+o*;2444443",
"4444442;&O#O%&*-&--:223>:--------*-----:,,,=:******%Ooo%;2444444",
"4444442;%@@o6&-&---:>2t2>--*--*-*-***--:>,,>;******$$X$$;2444444",
"4444412:&$@o%&-----:>33>:--*-*--&--**--:2432>-----*$+$$$;>444444",
"4444442-%#@$%&---*;:>332:-***--*--*-*-;:uuuuyeqr9-*$$X$%;2<44444",
"4444442;%O+$%&-&-*-q>332>---&-*----&&-qtgBBBBxiie9*$$X$%;2<44444",
"4444442;&O@O%&---*->>32>:---*--*---&*-qiBFPIIGSviq&$$+$$92444444",
"4444442:%O@$%&*-*--:><3>:--****-&---&-qlAIUTYUIAiq*$+$$%>2444444",
"3224322-%O@O%&--*-->2t3>>--&*--*---&&-qlAIUYYUIAxr*$$$+$->333333",
"22>22::*%O@O%&-----:>32>:---**-----&--qlAAIIIGSviw*$++$$*:>>2>>e",
";;:::;-&$#@O%&-&*-->>33>:--***-*&--&&-:tgBBBBziie9*$$@+$&->;>>;;",
";---;--%O@@O%&-*-*-:>322:;*****------&;qyuuuyeeq9-&%@@@$7*------",
"--;;;--%O#@$%&--**-:223>:*****-*---&---:2<<,>*-*--&5$+@$7*-;;-;-",
":::;:;;&$@@O%&----;::332>;-**-*--&-----:>,,>:-***-&$$@@$&->;;;;>",
":2>2>>:-%o@O%&-*---:2322:-**-----&&-&-->>,2>:******%$+@$*q>2>>>>",
"332313>-%O@O%&*----:233:>-**&--*----**-:>322:;-*-**$$+$$->33<<33",
"4444442:%$@O%&-*--;:2232:--&--------**-:>23>:;***-&%$+$79,444434",
"4444442;%O@O%&-*-*9::332:9--&-*--&-&**::233>:-**-*&%$+@&;3444444",
"4444442;%OoO$***---:>43>q;***--*-*-**--:2322:--**-&%@@$&;>444444",
"4444442:%O#O%****-;:>33>:-*****-*-****;:2232:;*--*&%$@o%;>444444",
"444444,;*OoO$**----;>22>:;-**--*-9*-*--::22>:--**-*$@+$&;>444444",
"4444412;%O+O%**----;:>>:;--*----**--*--;:>::;;---**%$@@$;3444444",
"4444442;%O#O%***---;;::;;*-*--*-----*--;::;;;-----*%$@@&;3444444",
"4444442;%OOO%**--*---;---****-***-*------;-----*--*5$@$&;2444444",
"222222:-%O+O$&****&&&&&&*&&**&&**&**&**&&&&&&&*&*&&$@@@$-:222222",
";;;::;;&OO+OO%6%%%%%%%%%%%%%7%%%%%%%%%%%%%%%%%%%%%$$@+o$&-;:;;::",
"*%%%%&%OOo#oOOO$O$OO5OOOO#$OO$O55$$$$5$$OOOOOOO$OOOO@@@O%%%&%&%&",
"OOOOOOOO+++++++#@@@@@o@@@@@+@@o@+o++++++#+@@o#@+##+@++++ooOOOOOO",
"XX++o+++++++++++++++++++++++++++++++++++++++++++++++++++o@++++Xo",
"+++.++++++++++++++++++++++++++++++++++++++++++++++++++++XX+++++X",
"+++++++++RR++++++++++RRRRRRRRRRRRRRRRRRRRRRRRRRRRRRRRRR++++++++.",
"++++++++RRRR++++++++RRRRRRRRRRRRRRRRRRRRRRRRRRRRRRRRRRRR++++++++",
"++++++++RRRR++++++++RRRRRRRRRRRRRRRRRRRRRRRRRRRRRRRRRRRR++++++++",
"++++++++RRRR++++++++RRRRRRRRRRRRRRRRRRRRRRRRRRRRRRRRRRRR++++++++"
};
