/* XPM */
static char *result[] = {
/* columns rows colors chars-per-pixel */
"64 64 37 1 ",
"  c #C0D470",
". c #C1D470",
"X c #C1D570",
"o c #BFD36F",
"O c #BDD26F",
"+ c #BDD26E",
"@ c #BED36F",
"# c #BFD470",
"$ c #BFD370",
"% c #BCD26E",
"& c #B9CF6D",
"* c #B7CE6C",
"= c #BCD16E",
"- c #C1D571",
"; c #B9D06D",
": c #B4CC6A",
"> c #B0CA69",
", c #B3CC6A",
"< c #B6CE6C",
"1 c #B0CA68",
"2 c #ABC766",
"3 c #AEC968",
"4 c #ABC666",
"5 c #BAD06D",
"6 c #B5CD6B",
"7 c #B2CB69",
"8 c #AFC968",
"9 c #BED26F",
"0 c #B1CA69",
"q c #ADC867",
"w c #A8C565",
"e c #B4CC6B",
"r c #ACC767",
"t c #A6C464",
"y c #A7C464",
"u c #C2D571",
"i c white",
/* pixels */
"                                                                ",
"                                                                ",
"                                                                ",
"                                                                ",
"                                                                ",
"                                                                ",
"                                                                ",
"                                                 ..             ",
"                                                .XX.            ",
"                                                                ",
"                                               oO++O@#          ",
"                                           .X.$%&**&=@          ",
"                                           X-.@;:>>,&O .        ",
"                                           .. +<122>*+ X.       ",
"                                           $@+;:342>*+ X.       ",
"                                          o%5*67831:&O .        ",
"                                        . 9;60817:<;%o          ",
"                                       .X +*>243:;+@$           ",
"                                       .X =6qwwq6= X.           ",
"                 ..                    XX =ertyr6+.u-           ",
"                .XX.                   XX =ertyr6% uX           ",
"                                       .X =6qwwq6% XX           ",
"              #@O++Oo                  .X +<1221<+ X.           ",
"              @=&**&%$.X.               . 9;:00:;9 .            ",
"            . O&,>>:;@.-X                 o=;**;=o              ",
"           .X +*>221<+ ..                 #oO++Oo#              ",
"           .X +*>243:;+@$                                       ",
"            . O&:13876*5%o               ..XXXX.                ",
"              o%;<:71806;9 .            .XXXX..                 ",
"               $@+;:342>*+ X.                                   ",
"               .X =6qwwq6= X.          oO++O@#                  ",
"               -u.+6rytre= XX      .X.$%&**&=@                  ",
"               Xu %6rytre= XX      X-.@;:>>,&O .                ",
"               XX %6qwwq6= X.      .. +<122>*+ X.               ",
"               .X +<1221<+ X.      $@+;:342>*+ X.               ",
"                . 9;:00:;9 .      o%5*67831:&O .                ",
"                  o=;**;=o      . 9;60817:<;%o                  ",
"                  #oO++Oo#     .X +*>243:;+@$                   ",
"                               .X =6qwwq6= X.                   ",
"                    .XX.       XX =ertyr6+.u-                   ",
"                     ..        XX =ertyr6% uX                   ",
"                               .X =6qwwq6% XX                   ",
"                               .X +<1221<+ X.                   ",
"                                . 9;:00:;9 .                    ",
"                                  o=;**;=o                      ",
"                                  #oO++Oo#                      ",
"                                                                ",
"                                    .XX.                        ",
"                                     ..                         ",
"                                                                ",
"                                                                ",
"                                                                ",
"                                                                ",
"                                                                ",
"                                                                ",
"                                                                ",
"                                                                ",
"                                                                ",
"                                                                ",
"                                                                ",
"                                                                ",
"                                                                ",
"                                                                ",
"                                                                "
};
