/* XPM */
static char *result[] = {
/* columns rows colors chars-per-pixel */
"64 64 195 2 ",
"   c #72366F",
".  c #7A3B6F",
"X  c #783E70",
"o  c #5F7C5A",
"O  c #66775E",
"+  c #647D5C",
"@  c #6A7A5F",
"#  c #6F4C6B",
"$  c #71436E",
"%  c #7B466F",
"&  c #6B5269",
"*  c #6C5A67",
"=  c #7E516D",
"-  c #7B5B6B",
";  c #72556B",
":  c #7C4571",
">  c #7A4872",
",  c #696663",
"<  c #696962",
"1  c #786867",
"2  c #667260",
"3  c #6D7361",
"4  c #747663",
"5  c #843E6E",
"6  c #84436E",
"7  c #84486F",
"8  c #8D4B6F",
"9  c #8B526E",
"0  c #8D5A6E",
"q  c #84586C",
"w  c #935E6E",
"e  c #834270",
"r  c #894471",
"t  c #844B72",
"y  c #8B4A70",
"u  c #924D71",
"i  c #875974",
"p  c #945374",
"a  c #9C5670",
"s  c #9B5B74",
"d  c #99547A",
"f  c #A35C6F",
"g  c #A35770",
"h  c #A45C71",
"j  c #A15D7C",
"k  c #A95F76",
"l  c #896A69",
"z  c #86696A",
"x  c #92676E",
"c  c #9D656E",
"v  c #857667",
"b  c #93776A",
"n  c #9B7B6C",
"m  c #936274",
"M  c #9C6875",
"N  c #987C76",
"B  c #A3656E",
"V  c #A26B6E",
"C  c #A37D6C",
"Z  c #A4756D",
"A  c #AC6374",
"S  c #A4637D",
"D  c #AA6777",
"F  c #B46C7A",
"G  c #B06679",
"H  c #A97677",
"J  c #B6747B",
"K  c #BC747E",
"L  c #BA7D7B",
"P  c #B37A79",
"I  c #5F8159",
"U  c #64825B",
"Y  c #69855C",
"T  c #6C8C5B",
"R  c #768B5D",
"E  c #6F9559",
"W  c #6E9857",
"Q  c #769F57",
"!  c #72945A",
"~  c #7A975D",
"^  c #759D58",
"/  c #7B9B5C",
"(  c #77A157",
")  c #78A357",
"_  c #77A058",
"`  c #79A258",
"'  c #7D8260",
"]  c #758A61",
"[  c #788B63",
"{  c #829F5F",
"}  c #82A45D",
"|  c #85AB5B",
" . c #89AE5C",
".. c #8DB15D",
"X. c #92B55E",
"o. c #96B85F",
"O. c #8D8C6A",
"+. c #918868",
"@. c #819166",
"#. c #849168",
"$. c #8D956B",
"%. c #9B9767",
"&. c #92966C",
"*. c #92996D",
"=. c #9A9767",
"-. c #9C9B71",
";. c #A2806B",
":. c #A48A6A",
">. c #A29B67",
",. c #A49469",
"<. c #A99E6C",
"1. c #AB8874",
"2. c #B68A76",
"3. c #B78179",
"4. c #A69A76",
"5. c #B49075",
"6. c #B29872",
"7. c #8AA760",
"8. c #8DAA61",
"9. c #91AE61",
"0. c #9CAF64",
"q. c #9AA065",
"w. c #96B561",
"e. c #9CB264",
"r. c #9DBC61",
"t. c #97B860",
"y. c #A3A167",
"u. c #A3AB65",
"i. c #ACA56C",
"p. c #A9A96A",
"a. c #A3B565",
"s. c #A3BD64",
"d. c #A9B967",
"f. c #ADB36A",
"g. c #B4BF6E",
"h. c #A7A175",
"j. c #ADA378",
"k. c #B1A579",
"l. c #B6A87B",
"z. c #BEAB7E",
"x. c #B7BF71",
"c. c #B8BE71",
"v. c #C1AC7F",
"b. c #C7BC7B",
"n. c #C6BE7A",
"m. c #9EC261",
"M. c #A4C263",
"N. c #A9C565",
"B. c #ADC967",
"V. c #ACC168",
"C. c #AFC968",
"Z. c #A7C863",
"A. c #B5C46B",
"S. c #B4CD6A",
"D. c #B9CF6D",
"F. c #B6D06B",
"G. c #BCD26E",
"H. c #BBC172",
"J. c #BFD470",
"K. c #C0D56F",
"L. c #C1D86F",
"P. c #C3D671",
"I. c #C6D972",
"U. c #C9DA73",
"Y. c #A76780",
"T. c #A76880",
"R. c #AE6A82",
"E. c #A96580",
"W. c #B26D80",
"Q. c #BE7381",
"!. c #BC7C8B",
"~. c #B87688",
"^. c #C17A82",
"/. c #B78D81",
"(. c #C68187",
"). c #CA858A",
"_. c #CD8A8D",
"`. c #C78389",
"'. c #CD8D93",
"]. c #C68690",
"[. c #D28F91",
"{. c #D39295",
"}. c #D89898",
"|. c #C29984",
" X c #C8A884",
".X c #CDB284",
"XX c #D2B486",
"oX c #D4BA84",
"OX c #D6B688",
"+X c #D9B58A",
"@X c #DCB98A",
"#X c #D9BC87",
"$X c #D6AF89",
"%X c #E1BC8C",
"&X c None",
/* pixels */
"&X&X&X&X&X&X&X&X&X&X&X&X&X&X&X&X&X&X&X&X&X&X&X&X&X&X&X&X&X&X&X&X&X&X&X&X&X&X&X&X&X&X&X&X&X&X&X&X&X&X&X&X&X&X&X&X&X&X&X&X&X&X&X&X",
"&X&X&X&X&X&X&X&X&X&X&X&X&X&X&X&X&X&X&X&X&X&X&X&X&X&X&X&X&X&X&X&X&X&X&X&X&X&X&X&X&X&X&X&X&X&X&X&X&X&X&X&X&X&X&X&X&X&X&X&X&X&X&X&X",
"&X&X&X&X&X&X&X&X&X&X&X&X&X&X&X&X&X&X&X&X&X&X&X&X&X&X&X&X&X&X&X&X&X&X&X&X&X&X&X&X&X&X&X&X&X&X&X&X&X&X&X&X&X&X&X&X&X&X&X&X&X&X&X&X",
"&X&X&X&X&X&X&X&X&X&X&X&X&X&X&X&X&X&X&X&X&X&X&X&X&X&X&X&X&X&X&X&X&X&X&X&X&X&X&X&X&X&X&X&X&X&X&X&X&X&X&X&X&X&X&X&X&X&X&X&X&X&X&X&X",
"&X&X&X&X&X&X&X&X&X&X&X&X&X&X&X&X&X&X&X&X&X&X&X&X&X&X&X&X&X&X&X&X&X&X&X&X&X&X&X&X&X&X&X&X&X&X&X&X&X&X&X&X&X&X&X&X&X&X&X&X&X&X&X&X",
"&X&X&X&X&X&X&X&X&X&X&X&X&X&X&X&X&X&X&X&X&X&X&X&X&X&X&X&X&X&X&X&X&X&X&X&X&X&X&X&X&X&X&X&X&X&X&X&X&X&X&X&X&X&X&X&X&X&X&X&X&X&X&X&X",
"&X&X&X&X&X&X&X&X&X&X&X&X&X&X&X&X&X&X&X&X&X&X&X&X&X&X&X&X&X&X&X&X&X&X&X&X&X&X&X&X&X&X&X&X&X&X&X&X&X&X&X&X&X&X&X&X&X&X&X&X&X&X&X&X",
"&X&X&X&X&X&X&X&X&X&X&X&X&X&X&X&X&X&X&X&X&X&X&X&X&X&X&X&X&X&X&X&X&X&X&X&X&X&X&X&X&X&X&X&X&X&X&X&X&X&X&X&X&X&X&X&X&X&X&X&X&X&X&X&X",
"&X&X&X&X&X&X&X&X&X&X&X&X&X_ _ _ _ ` _ ` ` ` _ _ ` Q ` ` ` Q Q Q ` Q Q Q ( Q Q &X&X&X&X&X&X&X&X&X&X&X&X&X&X&X&X&X&X&X&X&X&X&X&X&X",
"&X&X&X&X&X&X&X&X&X&X&X&X_ _ _ ` ` _ ` ` ` ` _ _ ` ` ` ` ` ( ` ` ` ` ` ` ` ` ` ` &X&X&X&X&X&X&X&X&X&X&X&X&X&X&X&X&X&X&X&X&X&X&X&X",
"&X&X&X&X&X&X&X&X&X&X&X&X` _ ` _ _ ` _ _ ` Q ` _ ` Q ` ) ` ) ) } ` ) ` } ` } ) ) &X&X&X&X&X&X&X&X&X&X&X&X&X&X&X&X&X&X&X&X&X&X&X&X",
"&X&X&X&X&X&X&X&X&X&X&X_ ` ` _ ` ` _ _ _ ( ` ` Q Q Q ` ) | |  .|  . .|  .|  . .| } &X&X&X&X&X&X&X&X&X&X&X&X&X&X&X&X&X&X&X&X&X&X&X",
"&X&X&X&X&X&X&X&X&X_ ` _ ` &X&X&X&X&X&X&X&X&X&X&X&X&X&X .X.X.X.o.X.X.X.X.X.X.X...| ) _ &X&X&X&X&X&X&X&X&X&X&X&X&X&X&X&X&X&X&X&X&X",
"&X&X&X&X&X&X&X&X` ` _ ` &X&X&X&X&X&X&X&X&X&X&X&X&X&X&X&Xo.r.r.r.r.s.r.r.o.s.o.X. .` _ _ &X&X&X&X&X&X&X&X&X&X&X&X&X&X&X&X&X&X&X&X",
"&X&X&X&X&X&X&X&X_ ` _ _ &X&X&X&X&X&X&X&X&X&X&X&X&X&X&X&XN.N.N.N.N.Z.N.N.C.N.M.o...| ` ) &X&X&X&X&X&X&X&X&X&X&X&X&X&X&X&X&X&X&X&X",
"&X&X&X&X&X&X&X` ` _ _ &X&X&X&X&X&X&X&X&X&X&X&X&X&X&X&XS.S.F.D.S.S.C.S.S.C.C.B.s.t... .| } &X&X&X&X&X&X&X&X&X&X&X&X&X&X&X&X&X&X&X",
"&X&X&X&X&X` _ ` _ &X&X&X&X&X&X&X&X&X&X&X&X&X&X&X&XN.B.S.G.K.K.K.G.D.D.D.D.D.S.N.s.o.X. .| ) ` &X&X&X&X&X&X&X&X&X&X&X&X&X&X&X&X&X",
"&X&X&X&X_ _ ` _ &X&X&X&X&X&X&X&X&X&X&X&X&X&X&X&Xm.M.N.S.K.I.U.U.P.P.G.G.G.G.F.S.B.M.o.X.| } ` Q &X&X&X&X&X&X&X&X&X&X&X&X&X&X&X&X",
"&X&X&X&X` ` _ ` &X&X&X&X&X&X&X&X&X&X&X&X&X&X&X&Xm.M.N.C.G.I.U.I.P.G.G.G.G.G.F.S.C.M.m.X. .) Q Q &X&X&X&X&X&X&X&X&X&X&X&X&X&X&X&X",
"&X&X&X&X` ` ` _ &X&X&X&X&X&X&X&X&X&X&X&X&X&X&X&Xs.Z.N.C.D.K.L.K.G.F.F.F.F.F.F.C.C.N.o.X. .} Q Q &X&X&X&X&X&X&X&X&X&X&X&X&X&X&X&X",
"&X&X&X&X` ( ` ( &X&X&X&X&X&X&X&X&X&X&X&X&X&X&X&XM.M.M.C.C.F.F.S.F.C.B.B.C.C.B.C.N.N.r.o. .) ( Q &X&X&X&X&X&X&X&X&X&X&X&X&X&X&X&X",
"&X&X&X&X` ` Q ` &X&X&X&X&X&X&X&X&X&X&X&X&X&X&X&XM.M.M.M.N.N.N.V.N.N.N.Z.N.N.N.N.N.M.o.o. .) ) Q &X&X&X&X&X&X&X&X&X&X&X&X&X&X&X&X",
"&X&X&X&X` _ _ _ &X&X&X&X&X&X&X&X&X&X&X&X&X&X&X&XM.M.m.s.a.a.a.a.a.d.d.d.d.d.d.s.M.M.s.o...| } } &X&X&X&X&X&X&X&X&X&X&X&X&X&X&X&X",
"&X&X&X&X_ _ _ _ &X&X&X&X&X&X&X&X&X&X&X&X&X&X&X&X&XZ.s.e.q.=.%.%.<.i.i.i.i.i.p.f.d.M.M.o.X... ...X.&X&X&X&X&X&X&X&X&X&X&X&X&X&X&X",
"&X&X&X&X` _ ` Q &X&X&X&X&XM.M.s.M.M.M.&X&X&X&X&X&X&X&X=.b b b n ;.1.2.5.5.5.6.i.f.s.Z.o.o.o.o.o.o.r.M.M.M.s.M.&X&X&X&X&X&X&X&X&X",
"&X&X&X&X_ ` ` ` &X&X&X&XM.M.M.M.M.M.M.M.&X&X&X&X&X&X&X&Xl m x M H P L L 3.3.2.6.p.d.M.m.M.M.r.r.M.s.M.M.M.M.M.M.&X&X&X&X&X&X&X&X",
"&X&X&X&X` _ ) ` &X&X&X&XN.N.N.N.M.M.M.M.&X&X&X&X&X&X&X&Xp d d k F J Q.K ^.K L 2.<.p.a.r.M.M.M.Z.N.Z.N.N.N.N.N.M.&X&X&X&X&X&X&X&X",
"&X&X&X&X_ _ ` )  .&X&XC.C.C.B.N.N.M.M.M.&X&X&X&X&X&X&Xd d E.E.R.W.Q.Q.Q.Q.Q.L 3.5.,.y.u.a.M.Z.B.S.S.S.S.C.C.B.N.N.&X&X&X&X&X&X&X",
"&X&X&X&X_ _ `  ...r.M.S.S.S.S.A.N.N.M.M.&X&X&X&X&Xr p Y.Y.~.~.!.^.Q.K K Q.Q.K J P C :.>.u.M.Z.S.F.G.L.G.D.D.S.S.N.N.M.&X&X&X&X&X",
"&X&X&X&X` ` ) | X.r.N.C.S.D.D.S.C.N.M.M.&X&X&X&X5 y p Y.~.].'.].^.^.K K K K J F F V Z :.y.a.N.S.G.U.U.I.P.J.D.S.C.M.M.M.&X&X&X&X",
"&X&X&X&XQ ` `  .X.r.N.C.S.D.D.S.B.N.M.Z.&X&X&X&X6 y p T.!.'.}.'._.^.K K K K K G A h B C ,.u.d.A.D.I.U.U.P.P.D.S.C.N.M.M.&X&X&X&X",
"&X&X&X&XQ ` }  .X.r.N.B.S.S.S.S.N.N.M.&X&X&X&X&X6 y p T.!.{.}.{._.^.K K K K K F k f B V C ,.p.f.H.G.I.I.P.P.J.D.C.M.M.M.&X&X&X&X",
"&X&X&X&X` _ `  .X.r.Z.N.B.B.C.Z.B.&X&X&X&X&X&X&Xr y p T.!.{.}.{.).^.K K ^.K K F A k h B V C :.i.f.A.D.F.P.J.G.S.C.M.M.m.&X&X&X&X",
"&X&X&X&X( ) `  .X.r.M.N.N.N.N.N.&X&X&X&X&X&X&X&X7 t p Y.!.[.}.[.).^.K K K K K F A h g f B V Z :.i.d.C.S.F.J.G.D.C.N.M.M.&X&X&X&X",
"&X&X&X&X( _ `  .X.r.r.M.s.M.M.N.&X&X&X&X&X&X&X&X6 y p S ~.'.{._.).^.K K K K F F A B f g g g V ;.>.a.N.B.F.J.D.S.C.N.M.M.&X&X&X&X",
"&X&X&X&X_ _ ` |  ...o.o.r.s.M.&X&X&X&X&X&X&X&X&Xr y p S ~.`._.).^.^.K K F F F A A h h g g g B C >.a.N.B.F.G.G.D.S.M.M.s.&X&X&X&X",
"&X&X&X&X_ _ ` | |  . .X.t.&X&X&X&X&X&X&X&X&X&X&Xr y p s R.!.(.(.^.L K F F A A A h h h g g h B ;.>.a.Z.B.F.G.G.D.C.N.M.r.&X&X&X&X",
"&X&X&X&X_ _ ` ` _ ` ) } &X&X&X&X&X&X&X&X&X&X&X&X6 y p s F J ^.^.^.K K F A A f f f h h g g h V ;.>.a.N.B.F.G.G.S.C.N.M.M.&X&X&X&X",
"&X&X&X&X^ ^ ^ Q Q ` ) ` &X&X&X&X&X&X&X&X&X&X&X&Xq q 0 s D G F K K K K F A k f f f f g g a a c n >.a.N.B.F.F.F.D.C.M.M.M.&X&X&X&X",
"&X&X&X&XW ! ! ! Q ( ` ` _ &X&X&X&X&X&X&X&X&X&XR v v l m M S A G G F F A A f f f f f g g u p w b %.a.M.C.S.S.S.S.C.N.M.&X&X&X&X&X",
"&X&X&X&XT T T ! ^ ^ _ ` ` ( _ ` _ _ ) ) ) ) / ~ [ [ [ b m s s k k A A A A f f h h f g p y r 9 b =.e.Z.Z.C.B.B.C.N.&X&X&X&X&X&X&X",
"&X&X&X&XY T T E ! ^ _ ` _ ` ) _ _ _ _ ( _ ) ` / ^ ~ [ v z i p a g f f f h h h f f h a u r : = z +.0.M.Z.N.M.N.M.&X&X&X&X&X&X&X&X",
"&X&X&X&X] T R E ! ^ ^ ^ _ ^ ^ _ _ ^ / Q ^ ^ Q Q ^ ^ ] [ 1 0 0 y 9 a g g a a a a a a a 8 : X > z &.0.M.Z.Z.M.M.M.&X&X&X&X&X&X&X&X",
"&X&X&X&X~ ~ ~ ~ ~ ! E W E E ! ! ! ^ ! ! E E W W W W E ] 4 1 - q 9 8 u u u u u y 8 8 8 5 X   $ 1 O.0.m.M.M.M.M.&X&X&X&X&X&X&X&X&X",
"&X&X&X&X9.8.7.@.~ E Y T T T T E ! T T T T T T T W T U U 4 3 1 - = 7 6 6 6 e e e 6 : : .   &X&X&X&X&X&X&X&X&X&X&X&X&X&X&X&X&X&X&X",
"&X&X&X&Xr.r.w. ./ ] Y Y Y Y Y Y Y Y Y Y Y Y T T T U U T Y Y 2 * ; $ . . X X X X X . > > &X&X&X&X&X&X&X&X&X&X&X&X&X&X&X&X&X&X&X&X",
"&X&X&X&XN.M.r.w.7.! ] Y Y U U U U Y Y Y ] ] R ] ] ] ] ] ] U 2 2 * # $ $ $ $ $ > > > t i &X&X&X&X&X&X&X&X&X&X&X&X&X&X&X&X&X&X&X&X",
"&X&X&X&XN.M.r.w.8./ ~ ~ T Y + o o + Y [ @.$.&.&.@./.#.@.] ] + 2 < * & & & & & - i m M T./.&X&X&X&X&X&X&X&X&X&X&X&X&X&X&X&X&X&X&X",
"&X&X&X&XN.M.M.r.w.8.7.@./ &X&X&X&X&X&X-./.h.|. Xh.|.-.7.@.] U U 2 < < < , , 1 v N 1./.|. XOX%X%X%X@X%X&X&X&X&X&X&X&X&X&X&X&X&X&X",
"&X&X&X&XM.M.M.r.s.r.r.w.&X&X&X&X&X&X&X&X.X.X.X.Xb..Xx./.$.] U U U U 2 2 2 2 ] #.4. X X$X+X@X#X@X@X@X@X@X&X&X&X&X&X&X&X&X&X&X&X&X",
"&X&X&X&XM.M.M.N.M.M.N.M.&X&X&X&X&X&X&X&XoX#X#X%X@XOX.X|.*.] U U U U U U U U ] *.6.XX@X%X%X@X@X@X@X@X@X@X&X&X&X&X&X&X&X&X&X&X&X&X",
"&X&X&X&XM.M.M.N.Z.S.S.C.C.&X&X&X&X&X&X%X#X%X%X%X%XoXx. X*.[ U I U U U I I U ] *.|.XX%X%X%X@X@X@X@X@X@X@X@X&X&X&X&X&X&X&X&X&X&X&X",
"&X&X&X&XM.M.N.N.C.D.S.S.C.C.B.H.b.#X%X%X%X@X%X%X%X%X.X X/ ] I I I U U I I U ] *.j..X#X%X%X@X@X@X@X@X@X@X@X@X@X&X&X&X&X&X&X&X&X&X",
"&X&X&X&XM.M.M.C.S.F.G.F.B.Z.V.c.n.OX%X%X@X@X@X%X%X@XH./.$.] T I U U U U U U [ *.k..X#X%X@X@X@X@X@X@X@XOX@X@XOX@X&X&X&X&X&X&X&X&X",
"&X&X&X&Xs.M.N.C.S.G.G.S.C.M.V.c.b.OX@X@X@X@X@X@X%X#X.X X/.{ [ T ] ] [ ] ] [ ~ *. X.X#X%X%X@X@X@X@X@X@X@X@X@X@X@X&X&X&X&X&X&X&X&X",
"&X&X&X&XM.M.Z.N.D.K.G.S.C.N.V.c.b.OX@X@X@X@X@X@X%X@X.X.X/.` /./ *.*.*.$.*.*.-.h. XOX#X%X@X@X@XOX@X@X@X@X@X@X@X@X&X&X&X&X&X&X&X&X",
"&X&X&X&Xs.M.N.B.S.G.J.D.B.M.V.c.b.oX@X@X@X@X@X@X@X@XOX.X X|. X|.|./.|./.s.|. X X.XOX@X@X@X@X@X@X@X@XOX@X@X@X@X@X&X&X&X&X&X&X&X&X",
"&X&X&X&XM.M.N.B.D.G.D.S.B.N.d.c.b.oX@X%X@X@X@X@X@X@X#XOXn..Xx..X.Xn..X.X.X.Xb.x.OXOX@X@X@X@X@X@X@X@X@X@X@X@X@X@X&X&X&X&X&X&X&X&X",
"&X&X&X&XM.M.N.B.S.D.D.S.B.N.B.c.b..X%X%X%X@X@X@X@X@X@X@XoXoX@X@X#X#X@X@X@X@XoXOX@X@X@X@X@X@X@X@X@X@X@X@X@X@X@X@X&X&X&X&X&X&X&X&X",
"&X&X&X&X&XM.N.C.S.S.S.B.N.M.N.g.n.OX@X%X@X@X@X@X@X@X@X@X@X@X%X@X#X%X%X%X@X%X@X@X@X@X@X@X@X@X#X@X@X@X@X@X@X@X@X&X&X&X&X&X&X&X&X&X",
"&X&X&X&X&X&X&XN.Z.C.N.N.M.M.V.d.n.&X&X%XOX@X@X@X@X@X@X@X@X@X@X%X@X%X@X@X@X%X%X@X@X@X@X@X@X@X@X@X@X&X&X&X&X&X&X&X&X&X&X&X&X&X&X&X",
"&X&X&X&X&X&X&X&XN.N.N.M.M.M.M.N.&X&X&X&X@X@X@X@X@X@X@X@X@X@X@X@X%X@X@X@X@X@X@X@X@X@X@X@X@X@X@X@X&X&X&X&X&X&X&X&X&X&X&X&X&X&X&X&X",
"&X&X&X&X&X&X&X&XM.M.M.M.M.M.M.M.&X&X&X&X%X@X@X@X@X@X#X@X@X@X@X@X@X@X@X@X@X@X@X@X@X@X@X@X@X@X@X@X&X&X&X&X&X&X&X&X&X&X&X&X&X&X&X&X",
"&X&X&X&X&X&X&X&Xs.M.M.M.M.M.M.m.&X&X&X&X@X@X@X@X@X@X@X@X@X@X@X@X@X@X@X@X@X@X@X@X@XOX@X@X@X@X@X@X&X&X&X&X&X&X&X&X&X&X&X&X&X&X&X&X"
};
