/* XPM */
static char *result[] = {
/* columns rows colors chars-per-pixel */
"64 64 195 2 ",
"   c #DCD37F",
".  c #E6DD7D",
"X  c #ECE37B",
"o  c #F1E87B",
"O  c #4B3B8A",
"+  c #54458E",
"@  c #554690",
"#  c #564890",
"$  c #5C4E92",
"%  c #5E5093",
"&  c #6E5C96",
"*  c #6C5E9B",
"=  c #65579A",
"-  c #705F97",
";  c #6E6197",
":  c #6E619B",
">  c #706197",
",  c #716498",
"<  c #78699E",
"1  c #7D729C",
"2  c #6C63A9",
"3  c #766AA3",
"4  c #796DA1",
"5  c #7067AA",
"6  c #756CAA",
"7  c #786FA9",
"8  c #7467A2",
"9  c #7E73A4",
"0  c #7C72A9",
"q  c #84759F",
"w  c #8E739B",
"e  c #84799E",
"r  c #8C7C9F",
"t  c #847BA4",
"y  c #8C7CA2",
"u  c #8175A9",
"i  c #867CAC",
"p  c #897EAD",
"a  c #8576A2",
"s  c #917FA5",
"d  c #8B829C",
"f  c #9D9498",
"g  c #968D99",
"h  c #B4AB8D",
"j  c #BEB695",
"k  c #ABA298",
"l  c #8D84A3",
"z  c #8780AD",
"x  c #8A80AB",
"c  c #9283A2",
"v  c #938AA3",
"b  c #968FAF",
"n  c #9B89A9",
"m  c #9D95A6",
"M  c #9D95AC",
"N  c #9F98AF",
"B  c #8E86B0",
"V  c #9589B5",
"C  c #998FB0",
"Z  c #9F99B3",
"A  c #9C95B2",
"S  c #B28DA2",
"D  c #A098A6",
"F  c #A19AA9",
"G  c #B493A4",
"H  c #B69CA7",
"J  c #B19BAF",
"K  c #A39DB2",
"L  c #A49ABE",
"P  c #AFA9AC",
"I  c #AEA7AA",
"U  c #B2ACAC",
"Y  c #B8ACAC",
"T  c #B7A5AA",
"R  c #BAB5AF",
"E  c #BDB8AF",
"W  c #B6B1AF",
"Q  c #AFA9B2",
"!  c #ADA4BE",
"~  c #B9A2B1",
"^  c #B3ACB6",
"/  c #BDACB3",
"(  c #B2A9BB",
")  c #B6B1B3",
"_  c #BBB4B1",
"`  c #BDB8B0",
"'  c #BAB6B8",
"]  c #C4BC92",
"[  c #D4A3A7",
"{  c #D5A7A8",
"}  c #D6AEAB",
"|  c #C3BEAB",
" . c #D8BAAF",
".. c #C1BCB2",
"X. c #C2BEB9",
"o. c #C7B6B7",
"O. c #DBBDB0",
"+. c #E7B2AC",
"@. c #EBB4AC",
"#. c #EABDAF",
"$. c #DDD58A",
"%. c #D1C98F",
"&. c #E3DD94",
"*. c #EBE381",
"=. c #ECE58A",
"-. c #F1EA8E",
";. c #F4EC83",
":. c #EBE597",
">. c #F1EC93",
",. c #F3EE9C",
"<. c #F6F198",
"1. c #D6D1AB",
"2. c #C5C1B4",
"3. c #CBC7B4",
"4. c #CECAB5",
"5. c #C5C1B8",
"6. c #CDC9BA",
"7. c #D2CEB5",
"8. c #DDCAB4",
"9. c #DEC5BE",
"0. c #DFC8BE",
"q. c #D0CCB8",
"w. c #DDD4B7",
"e. c #DEDBBA",
"r. c #D3D0BA",
"t. c #CBC6AF",
"y. c #EFC1AF",
"u. c #ECC5B1",
"i. c #EDCCB3",
"p. c #E1C7BF",
"a. c #E1CCBF",
"s. c #F0CEB4",
"d. c #EED1B5",
"f. c #EFDAB7",
"g. c #E1D4BD",
"h. c #E1DEBB",
"j. c #E9DCB7",
"k. c #F3D3B5",
"l. c #F1DEB9",
"z. c #E1DBA0",
"x. c #E6E2A6",
"c. c #F0EDAA",
"v. c #F5F1A5",
"b. c #F5F3AD",
"n. c #E3E0B4",
"m. c #E3E1BC",
"M. c #E9E7BD",
"N. c #ECEABD",
"B. c #F1EFB6",
"V. c #F4E3BB",
"C. c #F9E6BC",
"Z. c #F2ECBE",
"A. c #FAEEBE",
"S. c #F5F3B5",
"D. c #F4F3BE",
"F. c #ACA2C2",
"G. c #B7AEC2",
"H. c #BEB4CB",
"J. c #C9C2C3",
"K. c #D5CFCC",
"L. c #DAD5C4",
"P. c #DCD9C4",
"I. c #D9D4CD",
"U. c #DDD8CF",
"Y. c #CBC3D3",
"T. c #D1C9D5",
"R. c #DDD4DE",
"E. c #DFD8DA",
"W. c #F4DDC5",
"Q. c #F8DFC6",
"!. c #E5DED4",
"~. c #E1DADA",
"^. c #EAE7C0",
"/. c #EDEBC4",
"(. c #E6E3C9",
"). c #EBE7CB",
"_. c #EDEACB",
"`. c #F1EEC3",
"'. c #FDEDC6",
"]. c #F4E8C7",
"[. c #F4F3C0",
"{. c #FAF5C2",
"}. c #F7F9C2",
"|. c #F9F9C2",
" X c #E6E1D3",
".X c #EAE5D6",
"XX c #E7E0DE",
"oX c #E8E1DE",
"OX c #F1EDDA",
"+X c #F5F2D0",
"@X c #F5F0DA",
"#X c #FBF8D1",
"$X c #DCD3E0",
"%X c #E1D9E1",
"&X c None",
/* pixels */
"&X&X&X&X&X&X&X&X&X&X&X&X+ + + @ + + + + + + @ + &X&X&X&X&X&X&X&X&X&X&X&X&X&X&X&X+ + @ + + + @ + + + + + &X&X&X&X&X&X&X&X&X&X&X&X",
"&X&X&X&X&X&X&X&X&X&X&X&X$ % $ $ % % % % $ $ % % &X&X&X&X&X&X&X&X&X&X&X&X&X&X&X&X% % % % $ $ % % % % % % &X&X&X&X&X&X&X&X&X&X&X&X",
"&X&X&X&X&X&X&X&X&X&X&X&X; , , , , , , , , ; , ; &X&X&X&X&X&X&X&X&X&X&X&X&X&X&X&X; , > > , ; , , , ; ; ; &X&X&X&X&X&X&X&X&X&X&X&X",
"&X&X&X&X&X&X&X&X&X&X&X1 l l v v v v v v v v l r 1 &X&X&X&X&X&X&X&X&X&X&X&X&X&X1 r d v v v v v v v v l l 1 &X&X&X&X&X&X&X&X&X&X&X",
"&X&X&X&X&X&X&X&X&X% ; y m U R R E R R R R R U m r ; % &X&X&X&X&X&X&X&X&X&X$ , r m U R R R R R R ` R U D r ; % &X&X&X&X&X&X&X&X&X",
"&X&X&X&X&X&X&X&X+ % , d U 4.e.m.h.e.e.h.m.e.4.I v ; % + &X&X&X&X&X&X&X&X+ $ ; l U 4.e.h.h.h.e.h.h.e.4.U v ; $ + &X&X&X&X&X&X&X&X",
"&X&X&X&X&X&X&X&X@ % > g Y w.N.D.Z.Z.Z.A.D.D.e.R v ; % + &X&X&X&X&X&X&X&X+ $ , v R e.D.D.D.Z.Z.Z.D.N.w.Y v > $ @ &X&X&X&X&X&X&X&X",
"&X&X&X&X&X&X&X&X+ $ > c T a.V.C.C.V.C.A.{.D.m.R v ; # + + &X&X&X&X&X&XO + $ ; v E m.{.A.A.V.V.C.C.V.8.Y l > $ + &X&X&X&X&X&X&X&X",
"&X&X&X&X&X&X&X&X@ % ; r H O.d.k.k.k.k.C.A.Z.h.R v ; @ @ + + @ @ @ + + + @ # * v R m.D.A.C.k.d.k.k.s.O.H r - % + &X&X&X&X&X&X&X&X",
"&X&X&X&X&X&X&X&X@ % & w G } #.y.#.y.y.f.C.Z.e.` v , $ # @ $ % % % % % @ # $ , v E e.Z.C.k.y.y.y.y.#.} G w * $ + &X&X&X&X&X&X&X&X",
"&X&X&X&X&X&X&X&X@ % & w S { @.@.@.@.#.i.V.V.h.2.M a : * * : : : : * ; * * : q M ..h.M.V.s.#.@.@.@.@.[ S w - $ + &X&X&X&X&X&X&X&X",
"&X&X&X&X&X&X&X&X@ % & w S [ +.@.+.+.#.i.l.Z.m.6.^ b p i i i i z p p p i i x C ^ 6.j.Z.l.i.#.+.@.@.+.[ S w - = + &X&X&X&X&X&X&X&X",
"&X&X&X&X&X&X&X&X+ $ & w S [ +.@.+.+.#.i.l.Z.M.P.J.G.F.F.F.F.F.F.F.F.F.F.F.F.G.J.P.^.V.l.i.#.+.+.@.+.[ S w - $ + &X&X&X&X&X&X&X&X",
"&X&X&X&X&X&X&X&X@ $ - w S { +.@.@.+.#.i.l.N./.(.I.T.Y.Y.Y.Y.Y.Y.Y.Y.Y.Y.Y.Y.T.I.(./.Z.l.i.#.@.#.@.@.[ S w - $ + &X&X&X&X&X&X&X&X",
"&X&X&X&X&X&X&X&X+ % - w G } #.y.y.u.y.d.M.C./._. XE.R.R.$X$X$X$XR.R.R.R.$XR.~. X)./.`.M.d.y.#.#.#.#.} G w - % # &X&X&X&X&X&X&X&X",
"&X&X&X&X&X&X&X&X+ % - r H  .i.s.i.i.d.f.V.Z.[._..XXX%X$XXX$XXX$X%X%X%X%X$X%X~..X_.[.Z.V.f.d.i.i.s.i. .H r * $ @ &X&X&X&X&X&X&X&X",
"&X&X&X&X&X&X&X&X@ % ; d T 8.f.l.l.l.V.M.Z.Z.`._..XE.$XXX$X%X$XXX%X%X%X%X%X%X~. X).`.Z.N.V.l.l.V.V.k.8.T d , $ @ &X&X&X&X&X&X&X&X",
"&X&X&X&X&X&X&X&X+ $ ; v Y w.Z.[.A.Z.Z.Z.Z.D.`.). XE.$X$X$X$XXX$X~.$XE.$X$X$X~. X).`.[.D.Z.Z.Z.Z.A.Z.w.U v ; % @ &X&X&X&X&X&X&X&X",
"&X&X&X&X&X&X&X&X@ % ; v R e.D.[.{.[.[.D.D.[.`.). XE.E.$X$XE.$XE.$XE.$X$X$X$XE. X).[.[.D.D.[.D.}.D.D.h.R v ; % + &X&X&X&X&X&X&X&X",
"&X&X&X&X&X&X&X&X@ % ; v R e.[.}.}.[.[.[.D.[.`.). XE.$X$X$X$X$X$X$X$XE.$X$X$XE. X)./.[.D.D.[.[.}.|.D.e.R v ; $ + &X&X&X&X&X&X&X&X",
"&X&X&X&X&X&X&X&X+ $ ; v W e.D.|.}.[.[.[.[.[./.). XE.$X$X$X$X$XE.$X$X$X$X$XR.E. X).[.[.[.[.[.[.}.|.D.e.R v ; % + &X&X&X&X&X&X&X&X",
"&X&X&X&X&X&X&X&X+ % , v R e.[.|.}.D.[.[.D.[./.). XE.E.$X$XE.$X$XE.$XE.$X$X$X~. X)./.[.[.D.[.[.}.}.D.e.R v , % + &X&X&X&X&X&X&X&X",
"&X&X&X&X&X&X&X&X@ % ; v R e.[.|.}.D.[.[.[.[.[.). XE.E.E.E.E.E.E.E.E.~.E.E.E. X X).`.[.[.D.[.D.|.}.[.e.R v , % @ &X&X&X&X&X&X&X&X",
"&X&X&X&X&X&X&X@ @ % , v R e.[.|.|.[.[.[.[.[.[./.). X X X X X X X X X X X X X X)././.[.[.D.|.[.|.|.D.e.W v ; % @ @ &X&X&X&X&X&X&X",
"&X&X&X&X&X$ $ # # % , v R e.[.|.|.|.}.[.[.[.[././._.).).).).).).).).).).).).)._./.[.[.[.[.|.|.|.|.D.e.E g , % # # $ $ &X&X&X&X&X",
"&X&X&X&X$ $ $ @ # % , v E e.[.[.|.D.[.[.[.D.[.[.[./.`.`.`./.`.`.`.`././.[./.`.[.[.[.[.[.[.[.D.[.}.[.e.R v > % # # $ $ $ &X&X&X&X",
"&X&X&X&X$ $ $ # # % , v E e.N.Z.M.h.h.m.N.N.[.[.[.[.[.[.[.[.[.D.[.[.[.[.[.[.[.[.[.D.N.N.m.h.h.M.D.N.h.R v , % + # $ $ $ &X&X&X&X",
"&X&X&X&X&X$ $ # # % , v E e.N.h.4.....3.e.N.[.[.D.[.[.[.D.D.D.D.[.[.[.[.D.D.D.[.[.D.N.e.3.E ..4.m.N.e.` v , % + # $ $ &X&X&X&X&X",
"&X&X&X&X&X&X&X# # % , g ..e.m.7.U m m I 3.m.[.[.[.D.D.D.D.D.D.D.D.D.D.D.D.D.D.D.}.[.m.4.I m m U 4.m.e.E v , = + @ &X&X&X&X&X&X&X",
"&X&X&X&X&X&X&X&X+ $ < v E e.h.| D e e m ..h.D.[.[.[.[.[.`.[.`.D.[.D.`.D.[.`.D.}.[.D.h.E m e e D 2.e.e...v , $ + &X&X&X&X&X&X&X&X",
"&X&X&X&X&X&X&X&X+ $ > v ..e.h.2.D e e m E h.D.|.}.[.[.[.D.`.D.D.[.`.[.[.[.[.[.}.|.D.m.` m e e D 2.n.e.E v < $ @ &X&X&X&X&X&X&X&X",
"&X&X&X&X&X&X&X@ # % , v E e.m.7.U m m U 4.n.[.[.[.[.[.D.[.D.D.`.D.D.D.D.`.D.[.[.[.D.m.4.I m m U 7.m.e.E v , % @ @ &X&X&X&X&X&X&X",
"&X&X&X&X&X$ $ @ @ % , v E e.N.m.q.....q.e.N.[.[.D.D.[.[.D.`.D.D.[.[.[.[.`.[.D.[.[.[.N.e.3.` ..q.h.N.e.E v , = # # $ $ &X&X&X&X&X",
"&X&X&X&X$ $ $ $ # % , v E e.N.`.M.h.h.m.N.Z.[.[.[.`.D.[.D.D.[.`.D.[.D.[.D.D.[.[.[.D.Z.N.m.h.h.M.Z.Z.e.E v , $ + # $ $ $ &X&X&X&X",
"&X&X&X&X$ $ $ # # % , v E e.[.[.A.Z.`.`.D.[.[.D.[.[.D.[.[.[.D.[.`.D.D.[.[.[.[.D.D.[.[.Z.D.`.`.{.[.`.w._ v > % # # $ $ $ &X&X&X&X",
"&X&X&X&X&X$ $ # # $ > v / g.'.'.{.{.{.{.[.[.}.D.D.}.[.}.[.}.}.[.[.}.}.[.[.}.[.[.D.{.{.{.{.{.{.{.{.'.g._ c > $ # # $ $ &X&X&X&X&X",
"&X&X&X&X&X&X&X# + % > c o.p.].'.'.'.'.'.[.{.{.{.}.D.}.}.}.D.}.}.}.[.}.[.}.[.}.}.[.{.{.[.'.'.'.'.'.].p.o.s - % # # &X&X&X&X&X&X&X",
"&X&X&X&X&X&X&X&X@ % > c ~ p.k.Q.Q.W.W.].`.[.Z.[.D.`.[.D.D.`.D.[.[.[.[.[.D.[.`.D.[.[.`.`.W.W.W.W.Q.W.L.~ s - % + &X&X&X&X&X&X&X&X",
"&X&X&X&X&X&X&X&X+ % , y J o.p.p.p.0.9.0.e.P.m.m.h.h.h.h.m.m.m.h.h.h.h.h.m.h.h.m.m.h.w.0.L.L.L.#.p.p.o.H w - % # &X&X&X&X&X&X&X&X",
"&X&X&X&X&X&X&X&X&X% - a n J ~ ~ ~ ~ ~ / ' X.5.5.5.5.5.5.X.X.X.X.X.X.X.X.5.5.5.5.5.X.X.o.o.~ ~ ~ ~ ~ J n a - % &X&X&X&X&X&X&X&X&X",
"&X&X&X&X&X&X&X&X&X&X&X< q y s y y y y n M N K K Q Z Z Z K Z Z Z Z Z Z K K K ! K K K K M b l y y y s y a < &X&X&X&X&X&X&X&X&X&X&X",
"&X&X&X&X&X&X&X&X&X&X&X&X- - > > - , < 4 0 i i x z z z z z z x x z z z z z z z z z z 9 9 1 , ; ; - - - - &X&X&X&X&X&X&X&X&X&X&X&X",
"&X&X&X&X&X&X&X&X&X&X&X&X* * * , , , , 8 3 6 6 6 7 6 7 9 9 t x x z z i 0 0 7 6 6 6 6 7 6 3 , , , - : * * &X&X&X&X&X&X&X&X&X&X&X&X",
"&X&X&X&X&X&X&X&X&X&X&X3 u i p p l l y t 0 6 2 2 2 2 6 9 d g f m F Z A B 0 6 2 2 2 5 5 9 9 l l x p p i u 3 &X&X&X&X&X&X&X&X&X&X&X",
"&X&X&X&X&X&X&X&X&X% * u V Z ! G.^ ) P m x 7 2 2 2 2 0 d f h j j t.E ' K B 7 5 2 2 2 7 z N P ) ) ( ! L V u * $ &X&X&X&X&X&X&X&X&X",
"&X&X&X&X&X&X&X&X+ % : i L H.Y.I.P.e.q.' N i 6 2 5 6 t g h %.$.:.z.n.r.' Z z 7 5 5 6 i Z R 7.P.P.I.Y.H.L p * $ @ &X&X&X&X&X&X&X&X",
"&X&X&X&X&X&X&X&X+ % 2 p F.Y.E..X+X`.m.4.Q b z 0 u z v k ]   *.-.,.c.n.4.Q b z 0 0 z b Q 6.h./.+XOX%XY.F.p * % # &X&X&X&X&X&X&X&X",
"&X&X&X&X&X&X&X&X@ $ * z F.T.XX@X#X}.`.e.5.Q ! Z Z K I h   . o o <.<.x.1.` Q K Z Z K Q 5.e.[.}.#XOX!.T.F.p , $ + &X&X&X&X&X&X&X&X",
"&X&X&X&X&X&X&X&X+ % : p F.T.oX@X#X#X[.N.e.6.5.X.X.5.2.1.$.. X X ;.-.:.1.1.4.5.' X.5.4.e.N.[.#X#X@X!.T.F.p : $ @ &X&X&X&X&X&X&X&X",
"&X&X&X&X&X&X&X&X+ $ * p F.Y.~.oX_./.D.N.m.m.h.m.m.m.e.:.:.. X X X X =.:.x.n.m.^.h.h.m.N.N.D.`._..X~.Y.F.p : $ @ &X&X&X&X&X&X&X&X",
"&X&X&X&X&X&X&X&X+ # ; p L H.Y.K.L.e.n.M.N.N.D.[.[.D.S.c.,.=.*.X X *.=.,.c.D.D.[.[.[.N.N.m.m.e.L.K.T.H.L p * $ + &X&X&X&X&X&X&X&X",
"&X&X&X&X&X&X&X&X&X= ; u V L ! ( ^ _ 2.7.m.D.}.|.}.}.S.S.v.,.>.>.-.>.>.v.b.S.D.|.|.[.D.m.7..._ ( ( F.L V u * % &X&X&X&X&X&X&X&X&X",
"&X&X&X&X&X&X&X&X&X&X&X3 u p p l l v D W 7.N.[.|.|.D.D.S.S.b.v.v.v.v.b.b.S.D.D.|.|.[.N.7.R m v l p p p u 4 &X&X&X&X&X&X&X&X&X&X&X",
"&X&X&X&X&X&X&X&X&X&X&X&X: : * * * , a M ..h.[.}.|.[.D.D.B.S.B.B.B.B.B.D.D.D.D.|.|.[.m.2.D q , * * , * * &X&X&X&X&X&X&X&X&X&X&X&X",
"&X&X&X&X&X&X&X&X&X&X&X&X$ $ $ # @ % , v _ e.`.{.}.`././.m.h.e.e.e.e.e.m.N././.+X{.`.e._ v , % + # $ $ $ &X&X&X&X&X&X&X&X&X&X&X&X",
"&X&X&X&X&X&X&X&X&X&X&X&X&X+ + + @ # * c ( L._.+X+X_.(.L.6.X._ Y W _ ..6.P.)._.+X+X_.L.^ l * # + + + # &X&X&X&X&X&X&X&X&X&X&X&X&X",
"&X&X&X&X&X&X&X&X&X&X&X&X&X&X&X+ + # * l ( K..XOXOX.X!.J.Q M v d l v m ^ J.U..XOX@X.XK.( x ; # + + &X&X&X&X&X&X&X&X&X&X&X&X&X&X&X",
"&X&X&X&X&X&X&X&X&X&X&X&X&X&X&X&X+ $ * p ! Y.~.oX~.~.Y.G.C a , * & ; 9 b G.T.~.~.%X~.Y.F.x : % + &X&X&X&X&X&X&X&X&X&X&X&X&X&X&X&X",
"&X&X&X&X&X&X&X&X&X&X&X&X&X&X&X&X+ $ * p L H.Y.T.T.Y.H.L p * % + @ % : p F.H.Y.T.T.Y.H.L p : $ + &X&X&X&X&X&X&X&X&X&X&X&X&X&X&X&X",
"&X&X&X&X&X&X&X&X&X&X&X&X&X&X&X&X&X= * u V L F.F.F.F.L V 0 = @ O O + = 0 V L F.F.F.F.L V u * $ &X&X&X&X&X&X&X&X&X&X&X&X&X&X&X&X&X",
"&X&X&X&X&X&X&X&X&X&X&X&X&X&X&X&X&X&X&X3 u p p p B p p u 8 &X&X&X&X&X&X8 0 i p p p p p u 4 &X&X&X&X&X&X&X&X&X&X&X&X&X&X&X&X&X&X&X",
"&X&X&X&X&X&X&X&X&X&X&X&X&X&X&X&X&X&X&X&X* * * - * * * * &X&X&X&X&X&X&X&X* * , * : ; * * &X&X&X&X&X&X&X&X&X&X&X&X&X&X&X&X&X&X&X&X",
"&X&X&X&X&X&X&X&X&X&X&X&X&X&X&X&X&X&X&X&X$ % % $ % % $ % &X&X&X&X&X&X&X&X$ $ $ $ % % % $ &X&X&X&X&X&X&X&X&X&X&X&X&X&X&X&X&X&X&X&X",
"&X&X&X&X&X&X&X&X&X&X&X&X&X&X&X&X&X&X&X&X@ @ + # + + @ @ &X&X&X&X&X&X&X&X@ @ @ @ @ + + + &X&X&X&X&X&X&X&X&X&X&X&X&X&X&X&X&X&X&X&X"
};
