/* XPM */
static char *result[] = {
/* columns rows colors chars-per-pixel */
"64 64 155 2 ",
"   c #A87758",
".  c #A97758",
"X  c #A97858",
"o  c #A97859",
"O  c #AA7959",
"+  c #AC7B5A",
"@  c #AC7C5A",
"#  c #AD7D5A",
"$  c #AC7C5B",
"%  c #AD7C5B",
"&  c #AD7D5B",
"*  c #AE7D5C",
"=  c #AE7E5C",
"-  c #AE7F5C",
";  c #AF7F5C",
":  c #AF805C",
">  c #AF805D",
",  c #B0815C",
"<  c #B0805D",
"1  c #B0815D",
"2  c #B1825E",
"3  c #B1835E",
"4  c #B2835E",
"5  c #B3845D",
"6  c #B2845F",
"7  c #B3845F",
"8  c #B4865E",
"9  c #B5875E",
"0  c #B38560",
"q  c #B38561",
"w  c #B58760",
"e  c #B58761",
"r  c #B58861",
"t  c #B68861",
"y  c #B68961",
"u  c #B58862",
"i  c #B68962",
"p  c #B78962",
"a  c #B78A62",
"s  c #B78B62",
"d  c #B88B62",
"f  c #B88B63",
"g  c #B88C63",
"h  c #B98C63",
"j  c #B88B65",
"k  c #B98C64",
"l  c #B98D64",
"z  c #BA8D64",
"x  c #BA8D65",
"c  c #BA8E64",
"v  c #BA8E65",
"b  c #BB8F65",
"n  c #BA8F68",
"m  c #BC9066",
"M  c #BC9166",
"N  c #BD9166",
"B  c #BD9267",
"V  c #BE9367",
"C  c #BB9069",
"Z  c #BD9168",
"A  c #BF9368",
"S  c #BD936B",
"D  c #BE936B",
"F  c #BF9468",
"G  c #BE946C",
"H  c #C09468",
"J  c #C09569",
"K  c #C1966A",
"L  c #C2976A",
"P  c #C3986A",
"I  c #C3996A",
"U  c #C2986B",
"Y  c #C3996B",
"T  c #C49A6B",
"R  c #C3996C",
"E  c #C49A6C",
"W  c #C49B6C",
"Q  c #C59B6C",
"!  c #C49B6D",
"~  c #C59B6D",
"^  c #C59C6D",
"/  c #C69D6F",
"(  c #C79E6F",
")  c #C09770",
"_  c #C29971",
"`  c #C39B72",
"'  c #C59C71",
"]  c #C59E76",
"[  c #C89F71",
"{  c #C8A073",
"}  c #C9A173",
"|  c #C9A174",
" . c #C9A274",
".. c #C7A179",
"X. c #C8A27A",
"o. c #C8A37A",
"O. c #C9A37A",
"+. c #C9A37B",
"@. c #C9A47B",
"#. c #CCA679",
"$. c #CDA779",
"%. c #CDA77A",
"&. c #CBA67D",
"*. c #CDA77C",
"=. c #CFAB7E",
"-. c #D0AC7F",
";. c #CDA980",
":. c #D1AD81",
">. c #D2AF83",
",. c #D3AF83",
"<. c #D1AF86",
"1. c #D4B286",
"2. c #D5B387",
"3. c #D3B188",
"4. c #D5B48A",
"5. c #D5B48C",
"6. c #D5B58C",
"7. c #D6B58D",
"8. c #D6B68D",
"9. c #D7B78E",
"0. c #D8B78C",
"q. c #D9B88C",
"w. c #DBBC91",
"e. c #DCBE93",
"r. c #DDBE94",
"t. c #DDBF94",
"y. c #DCBE95",
"u. c #DDBF96",
"i. c #DFC298",
"p. c #E1C59B",
"a. c #E1C59C",
"s. c #E1C59D",
"d. c #E1C69D",
"f. c #E2C79E",
"g. c #E3C89E",
"h. c #E4C99F",
"j. c #E3C8A0",
"k. c #E5CAA1",
"l. c #E5CBA1",
"z. c #E6CCA3",
"x. c #E7CDA3",
"c. c #E7CEA5",
"v. c #E8CEA5",
"b. c #E8CFA5",
"n. c #E8CEA6",
"m. c #E8CFA6",
"M. c #E8D0A7",
"N. c #E9D0A8",
"B. c #E9D1A8",
"V. c #EAD1A8",
"C. c #EAD2A9",
"Z. c #EBD3AA",
"A. c #EBD4AB",
"S. c #ECD5AC",
"D. c None",
/* pixels */
"D.D.D.D.D.D.D.D.D.D.D.D.D.D.D.D.D.D.D.D.D.D.D.D.D.D.D.D.D.D.D.D.D.D.D.D.D.D.D.D.D.D.D.D.D.D.D.D.D.D.D.D.D.D.D.D.D.D.D.D.D.D.D.D.",
"D.D.D.D.D.D.D.D.D.D.D.D.D.D.D.D.D.D.D.D.D.D.D.D.D.D.D.D.D.D.D.D.D.D.D.D.D.D.D.D.D.D.D.D.D.D.D.D.D.D.D.D.D.D.D.D.D.D.D.D.D.D.D.D.",
"D.D.D.D.D.D.D.D.D.D.D.D.D.D.D.D.D.D.D.D.D.D.D.D.D.D.D.D.D.D.D.D.D.D.D.D.D.D.D.D.D.D.D.D.D.D.D.D.D.D.D.D.D.D.D.D.D.D.D.D.D.D.D.D.",
"D.D.D.D.D.D.D.D.D.D.D.D.D.D.D.D.D.D.D.D.D.D.D.D.D.D.D.D.D.D.D.D.D.D.D.D.D.D.D.D.D.D.D.D.D.D.D.D.D.D.D.D.D.D.D.D.D.D.D.D.D.D.D.D.",
"D.D.D.D.D.D.D.D.D.D.D.D.D.D.D.D.D.D.D.D.D.D.D.D.D.D.D.D.D.D.D.D.D.D.D.D.D.D.D.D.D.D.D.D.D.D.D.D.D.D.D.D.D.D.D.D.D.D.D.D.D.D.D.D.",
"D.D.D.D.D.D.D.D.D.D.D.D.D.D.D.D.D.D.D.D.D.D.D.D.D.D.D.D.D.D.D.D.D.D.D.D.D.D.D.D.D.D.D.D.D.D.D.D.D.D.D.D.D.D.D.D.D.D.D.D.D.D.D.D.",
"D.D.D.D.D.D.D.D.D.D.D.D.D.D.D.D.D.D.D.D.D.D.D.D.D.D.D.D.D.D.D.D.D.D.D.D.D.D.D.D.D.D.D.D.D.D.D.D.D.D.D.D.D.D.D.D.D.D.D.D.D.D.D.D.",
"D.D.D.D.D.D.D.D.D.D.D.D.D.D.D.D.D.D.D.D.D.D.D.D.D.D.D.D.D.D.D.D.D.D.D.D.D.D.D.D.D.D.D.D.D.D.D.D.D.D.D.D.D.D.D.D.D.D.D.D.D.D.D.D.",
"D.D.D.D.D.D.D.D.D.D.D.D.D.D.D.D.D.D.D.D.D.D.D.D.D.8 8 8 8 8 8 8 8 8 8 8 8 8 8 D.D.D.D.D.D.D.D.D.D.D.D.D.D.D.D.D.D.D.D.D.D.D.D.D.",
"D.D.D.D.D.D.D.D.D.D.D.D.D.D.D.D.D.D.D.D.D.D.D.D.a a a a a a a a a a a a a a a a D.D.D.D.D.D.D.D.D.D.D.D.D.D.D.D.D.D.D.D.D.D.D.D.",
"D.D.D.D.D.D.D.D.D.D.D.D.D.D.D.D.D.D.D.D.D.D.D.D.S S D D D D D D D D D D D D S S D.D.D.D.D.D.D.D.D.D.D.D.D.D.D.D.D.D.D.D.D.D.D.D.",
"D.D.D.D.D.D.D.D.D.D.D.D.D.D.D.D.D.D.D.D.D.D.D._ ] ..X.O.o.X.X.X.X.X.X.o.O.X...] _ D.D.D.D.D.D.D.D.D.D.D.D.D.D.D.D.D.D.D.D.D.D.D.",
"D.D.D.D.D.D.D.D.D.D.D.D.D.D.D.D.D.D.D.D.D.a S ] ;.3.5.8.7.6.6.6.6.6.6.7.8.5.3.;.] S a D.D.D.D.D.D.D.D.D.D.D.D.D.D.D.D.D.D.D.D.D.",
"D.D.D.D.D.D.D.D.D.D.D.D.D.D.D.D.D.D.D.D.8 a S ..3.y.a.f.f.d.s.s.s.s.d.f.f.a.y.3...S a 8 D.D.D.D.D.D.D.D.D.D.D.D.D.D.D.D.D.D.D.D.",
"D.D.D.D.D.D.D.D.D.D.D.D.D.D.D.D.D.D.D.D.8 s D X.6.s.n.V.B.m.m.m.m.m.m.B.V.n.s.6.X.D s 8 D.D.D.D.D.D.D.D.D.D.D.D.D.D.D.D.D.D.D.D.",
"D.D.D.D.D.D.D.D.D.D.D.D.D.D.D.D.D.D.D.D.9 f G +.9.j.C.S.A.C.V.V.V.V.C.A.S.C.j.9.+.G f 9 D.D.D.D.D.D.D.D.D.D.D.D.D.D.D.D.D.D.D.D.",
"D.D.D.D.D.D.D.D.D.D.D.D.D.D.D.D.D.D.D.D.9 f G @.9.j.C.S.Z.V.B.B.B.B.V.Z.S.C.j.9.@.G f 9 D.D.D.D.D.D.D.D.D.D.D.D.D.D.D.D.D.D.D.D.",
"D.D.D.D.D.D.D.D.D.D.D.D.D.D.D.D.D.D.D.D.8 a D X.6.s.m.C.B.M.m.m.m.m.M.B.C.m.s.6.X.D a 8 D.D.D.D.D.D.D.D.D.D.D.D.D.D.D.D.D.D.D.D.",
"D.D.D.D.D.D.D.D.D.D.D.D.D.D.D.D.D.D.D.D.5 t C ] <.u.h.x.v.b.m.M.M.m.b.v.x.h.u.<.] C t 5 D.D.D.D.D.D.D.D.D.D.D.D.D.D.D.D.D.D.D.D.",
"D.D.D.D.D.D.D.D.D.D.D.D.D.D.D.D.D.D.D.D., 6 j ) &.4.r.p.k.c.N.C.C.N.c.k.p.r.4.&.) j 6 , D.D.D.D.D.D.D.D.D.D.D.D.D.D.D.D.D.D.D.D.",
"D.D.D.D.D.D.D.D.D.D.D.D.D.D.D.D.D.D.D.D.# > q n ` *.1.w.p.z.B.Z.Z.B.z.p.w.1.*.` n q > # D.D.D.D.D.D.D.D.D.D.D.D.D.D.D.D.D.D.D.D.",
"D.D.D.D.D.D.D.D.D.D.D.D.D.D.D.D.D.D.D.D.O @ < u Z ' %.2.t.h.m.C.C.m.h.t.2.%.' Z u < @ O D.D.D.D.D.D.D.D.D.D.D.D.D.D.D.D.D.D.D.D.",
"D.D.D.D.D.D.D.D.D.D.D.D.D.D.D.D.D.D.D.D.. O & 7 h K { -.q.i.g.l.l.g.i.q.-.{ K h 7 & O . D.D.D.D.D.D.D.D.D.D.D.D.D.D.D.D.D.D.D.D.",
"D.D.D.D.D.D.D.D.D.D.D.D.D.D.D.D.D.D.D.D.  O & 4 d F / #.,.0.w.e.e.w.0.,.#./ F d 4 & O   D.D.D.D.D.D.D.D.D.D.D.D.D.D.D.D.D.D.D.D.",
"D.D.D.D.D.D.D.D.D.D.D.D.D.D.D.D.D.D.D.D.  O & 4 h H ~ } $.=.:.>.>.:.=.$.} ~ H h 4 & O   D.D.D.D.D.D.D.D.D.D.D.D.D.D.D.D.D.D.D.D.",
"D.D.D.D.D.D.D.D.D.D.D.D.D.D.D.D.D.D.D.D.. O & 7 z J ! ( [ { |  . .| { [ ( ! J z 7 & O . D.D.D.D.D.D.D.D.D.D.D.D.D.D.D.D.D.D.D.D.",
"D.D.D.D.D.D.D.D.D.D.D.D.D.D.D.D.D.D.D.D.. O * 0 x J E ~ ~ E E E E E E ~ ~ E J x 0 * O . D.D.D.D.D.D.D.D.D.D.D.D.D.D.D.D.D.D.D.D.",
"D.D.D.D.D.D.D.D.D.D.D.D.D.D.D.D.D.D.D.D.. O * 0 x J E E T I P P P P I T E E J x 0 * O . D.D.D.D.D.D.D.D.D.D.D.D.D.D.D.D.D.D.D.D.",
"D.D.D.D.D.D.D.D.D.D.D.D.D.D.D.D.D.D.D.D.. O * 0 x J E Q E Y I I I I Y E Q E J x 0 * O . D.D.D.D.D.D.D.D.D.D.D.D.D.D.D.D.D.D.D.D.",
"D.D.D.D.D.D.D.D.D.D.D.D.D.D.D.D.D.D.D.D.. O * 0 x J E ~ Q E E E E E E Q ~ E J x 0 * O . D.D.D.D.D.D.D.D.D.D.D.D.D.D.D.D.D.D.D.D.",
"D.D.D.D.D.D.D.D.D.D.D.D.D.D.D.D.D.D.D.D.. O * 0 x J E ~ ~ E E E E E E ~ ~ E J x 0 * O . D.D.D.D.D.D.D.D.D.D.D.D.D.D.D.D.D.D.D.D.",
"D.D.D.D.D.D.D.D.D.D.D.D.D.D.D.D.D.D.D.D.. O * 0 x J E ~ ~ E E E E E E ~ ~ E J x 0 * O . D.D.D.D.D.D.D.D.D.D.D.D.D.D.D.D.D.D.D.D.",
"D.D.D.D.D.D.D.D.D.D.D.D.D.D.D.D.D.D.D.D.. O * 0 x J E ~ ~ E E E E E E ~ ~ E J x 0 * O . D.D.D.D.D.D.D.D.D.D.D.D.D.D.D.D.D.D.D.D.",
"D.D.D.D.D.D.D.D.D.D.D.D.D.D.D.D.D.D.D.D.. O * 0 x J E ~ ~ E E E E E E ~ ~ E J x 0 * O . D.D.D.D.D.D.D.D.D.D.D.D.D.D.D.D.D.D.D.D.",
"D.D.D.D.D.D.D.D.D.D.D.D.D.D.D.D.D.D.D.D.. O * 0 x J E ~ ~ E E E E E E ~ ~ E J x 0 * O . D.D.D.D.D.D.D.D.D.D.D.D.D.D.D.D.D.D.D.D.",
"D.D.D.D.D.D.D.D.D.D.D.D.D.D.D.D.D.D.D.D.. O = 0 v K E ~ ~ E E E E E E ~ ~ E K v 0 = O . D.D.D.D.D.D.D.D.D.D.D.D.D.D.D.D.D.D.D.D.",
"D.D.D.D.D.D.D.D.D.D.D.D.D.D.D.D.D.D.D.D.. O = 0 v K E ^ ~ E E E E E E ~ ^ E K v 0 = O . D.D.D.D.D.D.D.D.D.D.D.D.D.D.D.D.D.D.D.D.",
"D.D.D.D.D.D.D.D.D.D.D.D.D.D.D.D.D.D.D.D.. O * 0 x J E ~ Q E E E E E E Q ~ E J x 0 * O . D.D.D.D.D.D.D.D.D.D.D.D.D.D.D.D.D.D.D.D.",
"D.D.D.D.D.D.D.D.D.D.D.D.D.D.D.D.D.D.D.D.. O & 7 k F U E E E E E E E E E E U F k 7 & O . D.D.D.D.D.D.D.D.D.D.D.D.D.D.D.D.D.D.D.D.",
"D.D.D.D.D.D.D.D.D.D.D.D.D.D.D.D.D.D.D.D.. O & 2 a m J L Y E E ~ ~ E E Y L J m a 2 & O . D.D.D.D.D.D.D.D.D.D.D.D.D.D.D.D.D.D.D.D.",
"D.D.D.D.D.D.D.D.D.D.D.D.D.D.D.D.D.D.D.D.X O $ 1 e l N J L R W ~ ~ W R L J N l e 1 $ O X D.D.D.D.D.D.D.D.D.D.D.D.D.D.D.D.D.D.D.D.",
"D.D.D.D.D.D.D.D.D.D.D.D.D.D.D.D.D.D.D.D.X O @ ; 7 a c B J U E Q Q E U J B c a 7 ; @ O X D.D.D.D.D.D.D.D.D.D.D.D.D.D.D.D.D.D.D.D.",
"D.D.D.D.D.D.D.D.D.D.D.D.D.D.D.D.D.D.D.D.X O + - 4 r h m A K U Y Y U K A m h r 4 - + O X D.D.D.D.D.D.D.D.D.D.D.D.D.D.D.D.D.D.D.D.",
"D.D.D.D.D.D.D.D.D.D.D.D.D.D.D.D.D.D.D.D.o O + = 3 w f c M V F J J F V M c f w 3 = + O o D.D.D.D.D.D.D.D.D.D.D.D.D.D.D.D.D.D.D.D.",
"D.D.D.D.D.D.D.D.D.D.D.D.D.D.D.D.D.D.D.D.o O + - 4 e a h c b m m m m b c h a e 4 - + O o D.D.D.D.D.D.D.D.D.D.D.D.D.D.D.D.D.D.D.D.",
"D.D.D.D.D.D.D.D.D.D.D.D.D.D.D.D.D.D.D.D.X O + ; 4 r a f g h h h h h h g f a r 4 ; + O X D.D.D.D.D.D.D.D.D.D.D.D.D.D.D.D.D.D.D.D.",
"D.D.D.D.D.D.D.D.D.D.D.D.D.D.D.D.D.D.D.D.X O @ : 6 r a s a a a a a a a a s a r 6 : @ O X D.D.D.D.D.D.D.D.D.D.D.D.D.D.D.D.D.D.D.D.",
"D.D.D.D.D.D.D.D.D.D.D.D.D.D.D.D.D.D.D.D.D.O % 1 0 t a a a a p p p p a a a a t 0 1 % O D.D.D.D.D.D.D.D.D.D.D.D.D.D.D.D.D.D.D.D.D.",
"D.D.D.D.D.D.D.D.D.D.D.D.D.D.D.D.D.D.D.D.D.D.D.4 w i a a a a a a a a a a a a i w 4 D.D.D.D.D.D.D.D.D.D.D.D.D.D.D.D.D.D.D.D.D.D.D.",
"D.D.D.D.D.D.D.D.D.D.D.D.D.D.D.D.D.D.D.D.D.D.D.D.y a a a a a a a a a a a a a a y D.D.D.D.D.D.D.D.D.D.D.D.D.D.D.D.D.D.D.D.D.D.D.D.",
"D.D.D.D.D.D.D.D.D.D.D.D.D.D.D.D.D.D.D.D.D.D.D.D.a a a a a a a a a a a a a a a a D.D.D.D.D.D.D.D.D.D.D.D.D.D.D.D.D.D.D.D.D.D.D.D.",
"D.D.D.D.D.D.D.D.D.D.D.D.D.D.D.D.D.D.D.D.D.D.D.D.D.a a a a a a a a a a a a a a D.D.D.D.D.D.D.D.D.D.D.D.D.D.D.D.D.D.D.D.D.D.D.D.D.",
"D.D.D.D.D.D.D.D.D.D.D.D.D.D.D.D.D.D.D.D.D.D.D.D.D.D.D.D.D.D.D.D.D.D.D.D.D.D.D.D.D.D.D.D.D.D.D.D.D.D.D.D.D.D.D.D.D.D.D.D.D.D.D.D.",
"D.D.D.D.D.D.D.D.D.D.D.D.D.D.D.D.D.D.D.D.D.D.D.D.D.D.D.D.D.D.D.D.D.D.D.D.D.D.D.D.D.D.D.D.D.D.D.D.D.D.D.D.D.D.D.D.D.D.D.D.D.D.D.D.",
"D.D.D.D.D.D.D.D.D.D.D.D.D.D.D.D.D.D.D.D.D.D.D.D.D.D.D.D.D.D.D.D.D.D.D.D.D.D.D.D.D.D.D.D.D.D.D.D.D.D.D.D.D.D.D.D.D.D.D.D.D.D.D.D.",
"D.D.D.D.D.D.D.D.D.D.D.D.D.D.D.D.D.D.D.D.D.D.D.D.D.D.D.D.D.D.D.D.D.D.D.D.D.D.D.D.D.D.D.D.D.D.D.D.D.D.D.D.D.D.D.D.D.D.D.D.D.D.D.D.",
"D.D.D.D.D.D.D.D.D.D.D.D.D.D.D.D.D.D.D.D.D.D.D.D.D.D.D.D.D.D.D.D.D.D.D.D.D.D.D.D.D.D.D.D.D.D.D.D.D.D.D.D.D.D.D.D.D.D.D.D.D.D.D.D.",
"D.D.D.D.D.D.D.D.D.D.D.D.D.D.D.D.D.D.D.D.D.D.D.D.D.D.D.D.D.D.D.D.D.D.D.D.D.D.D.D.D.D.D.D.D.D.D.D.D.D.D.D.D.D.D.D.D.D.D.D.D.D.D.D.",
"D.D.D.D.D.D.D.D.D.D.D.D.D.D.D.D.D.D.D.D.D.D.D.D.D.D.D.D.D.D.D.D.D.D.D.D.D.D.D.D.D.D.D.D.D.D.D.D.D.D.D.D.D.D.D.D.D.D.D.D.D.D.D.D.",
"D.D.D.D.D.D.D.D.D.D.D.D.D.D.D.D.D.D.D.D.D.D.D.D.D.D.D.D.D.D.D.D.D.D.D.D.D.D.D.D.D.D.D.D.D.D.D.D.D.D.D.D.D.D.D.D.D.D.D.D.D.D.D.D.",
"D.D.D.D.D.D.D.D.D.D.D.D.D.D.D.D.D.D.D.D.D.D.D.D.D.D.D.D.D.D.D.D.D.D.D.D.D.D.D.D.D.D.D.D.D.D.D.D.D.D.D.D.D.D.D.D.D.D.D.D.D.D.D.D.",
"D.D.D.D.D.D.D.D.D.D.D.D.D.D.D.D.D.D.D.D.D.D.D.D.D.D.D.D.D.D.D.D.D.D.D.D.D.D.D.D.D.D.D.D.D.D.D.D.D.D.D.D.D.D.D.D.D.D.D.D.D.D.D.D.",
"D.D.D.D.D.D.D.D.D.D.D.D.D.D.D.D.D.D.D.D.D.D.D.D.D.D.D.D.D.D.D.D.D.D.D.D.D.D.D.D.D.D.D.D.D.D.D.D.D.D.D.D.D.D.D.D.D.D.D.D.D.D.D.D.",
"D.D.D.D.D.D.D.D.D.D.D.D.D.D.D.D.D.D.D.D.D.D.D.D.D.D.D.D.D.D.D.D.D.D.D.D.D.D.D.D.D.D.D.D.D.D.D.D.D.D.D.D.D.D.D.D.D.D.D.D.D.D.D.D."
};
